<svg id="Layer_1" data-name="Layer 1" xmlns="http://www.w3.org/2000/svg" viewBox="0 0 1920 973"><defs><style>.cls-1,.cls-2{fill:#fd151b;}.cls-2{font-size:116.35px;font-family:Tahoma;}</style></defs><title>logo-best-vermelhoArtboard 1</title><path class="cls-1" d="M1125.9,535.87q0,23.46-9.44,41.42a84.88,84.88,0,0,1-25.4,29.6,120.19,120.19,0,0,1-40.46,19.77q-21.58,5.82-55.74,5.82h-96V317.91h88.76q35.72,0,53.59,2.22a104.66,104.66,0,0,1,34.27,10.45q18,9.07,26.29,23.74t8.32,34.51a66.77,66.77,0,0,1-12.48,39.68Q1085.15,446,1063.13,456v1.7q29.91,7.59,46.34,27.79t16.43,50.43m-62.11-141.16q0-11.41-4-19.75a29.69,29.69,0,0,0-13-13.21,64.1,64.1,0,0,0-24.05-7q-13.26-1.28-36.64-1.27h-42.7v92.09h50.57q20.91,0,30.79-2a65.32,65.32,0,0,0,20.45-8.34,34.59,34.59,0,0,0,14.39-16.06q4.26-9.93,4.27-24.5m15.8,142.88q0-17.79-5.4-29.33t-21.81-19.59a69.4,69.4,0,0,0-23.05-6.76q-12.48-1.49-35.42-1.49H943.32V596.87h36.2q29.24,0,46.1-2.54a74.66,74.66,0,0,0,29.68-10.79q12.59-8.26,18.44-18.74t5.85-27.21"/><polygon class="cls-1" points="1170.19 632.48 1170.19 317.92 1379.81 317.92 1379.81 355.13 1214.63 355.13 1214.63 441.33 1368.57 441.33 1368.57 478.54 1214.63 478.54 1214.63 595.26 1379.81 595.26 1379.81 632.48 1170.19 632.48"/><path class="cls-1" d="M1521.72,638.1q-36.39,0-61.89-7.07a316.24,316.24,0,0,1-48-17.42V561.26H1415a162.57,162.57,0,0,0,49.86,30.06Q1492.72,602,1518.56,602q36.81,0,55.69-14.46t18.87-38.09q0-18.81-9.88-30.61t-31.44-17.53q-15.49-4.22-28.31-7t-32.13-7.38a159.46,159.46,0,0,1-31-10.77,87.25,87.25,0,0,1-24.27-17.1,73.27,73.27,0,0,1-16.07-24.4q-5.73-14-5.72-32.41,0-38.22,31.67-64.08t80.85-25.87a257.09,257.09,0,0,1,53.12,5.29,222.12,222.12,0,0,1,46.39,15V382.7H1623q-15.95-13.76-40.88-24a136.21,136.21,0,0,0-52.31-10.26q-31,0-50.07,13.62t-19.09,35.78q0,20,11.23,31.87t32.56,17.3q14.14,3.6,34.6,8.13t33.93,8.34q34.61,9.93,50.55,30t16,49.41a88.65,88.65,0,0,1-8,36.32,85.66,85.66,0,0,1-22.35,30.4,118.22,118.22,0,0,1-36.5,21.11q-20.32,7.41-50.88,7.4"/><polygon class="cls-1" points="1763.13 632.48 1763.13 355.13 1650.69 355.13 1650.69 317.92 1920 317.92 1920 355.13 1807.57 355.13 1807.57 632.48 1763.13 632.48"/><text class="cls-2" transform="translate(1420.11 755.58)">COIMBRA</text><path class="cls-1" d="M731.89,632.89l-73.73-42.48H465.66L392,632.89c70.52,122.54,281.4,323.19,509.88,340.56-79.62-44.59-206.33-204.84-170-340.56"/><path class="cls-1" d="M574.05,402.66h0l-1.44-2.49ZM783.92.13C785.11,91.4,709.73,281.19,574,317.58l0,85.08L670.3,569.39,744,612c70.86-122.37,139.21-405.3,40-611.86"/><path class="cls-1" d="M453.53,569.39h0l-1.44,2.51Zm96.31-251.81C408.47,317.38,129.24,399.69,0,588.91,78.44,542.25,280.53,512.6,379.89,612l73.64-42.61,96.26-166.71Z"/><path class="cls-1" d="M516.8,520.8a45.12,45.12,0,1,1,45.12,45.12A45.11,45.11,0,0,1,516.8,520.8"/></svg>